<svg id="Layer_1" data-name="Layer 1" xmlns="http://www.w3.org/2000/svg" xmlns:xlink="http://www.w3.org/1999/xlink" viewBox="0 0 133 34"><defs><style>.cls-1{fill:#bd574a;}.cls-2{fill:#86463f;}.cls-3{fill:#3b2314;}.cls-4{fill:url(#linear-gradient);}.cls-5{fill:url(#linear-gradient-2);}.cls-6{fill:url(#linear-gradient-3);}.cls-7{fill:url(#linear-gradient-4);}.cls-8{font-size:26.91px;fill:#fff;font-family:Arial-BoldMT, Arial;font-weight:700;letter-spacing:-0.04em;}</style><linearGradient id="linear-gradient" x1="8330.85" y1="567.81" x2="8332.31" y2="564.15" gradientTransform="matrix(-0.98, -0.14, -0.14, 0.99, 8334.17, 589.34)" gradientUnits="userSpaceOnUse"><stop offset="0" stop-color="#599045"/><stop offset="0.19" stop-color="#659c44"/><stop offset="0.71" stop-color="#81ba40"/><stop offset="1" stop-color="#8bc53f"/></linearGradient><linearGradient id="linear-gradient-2" x1="149.57" y1="814.98" x2="151.04" y2="811.32" gradientTransform="matrix(0.98, 0.2, -0.2, 0.98, 141.82, -814.88)" xlink:href="#linear-gradient"/><linearGradient id="linear-gradient-3" x1="682.98" y1="-337.16" x2="684.09" y2="-339.92" gradientTransform="matrix(0.98, -0.09, 0.09, 1, -516.5, 412.33)" gradientUnits="userSpaceOnUse"><stop offset="0" stop-color="#599045"/><stop offset="0.62" stop-color="#aac22f"/><stop offset="1" stop-color="#d6de23"/></linearGradient><linearGradient id="linear-gradient-4" x1="7615.78" y1="-567.57" x2="7616.89" y2="-570.33" gradientTransform="matrix(-0.99, 0.16, 0.16, 0.99, 7730.29, -625.34)" xlink:href="#linear-gradient-3"/></defs><title>logo-kms-jamu</title><path class="cls-1" d="M122.46,15.07a6.36,6.36,0,0,0,3.32-.46l.24-.08s.09,0,.13,0,0,.09,0,.13a3.44,3.44,0,0,1-.28.69,4.3,4.3,0,0,1-.85,1.14,2.55,2.55,0,0,1-1,.56c-.19.06-.37.12-.56.2a2,2,0,0,0,.72-.16l.51-.19a.39.39,0,0,1,.47.16.5.5,0,0,1,0,.55.21.21,0,0,1-.15.07,15.73,15.73,0,0,1-2.06,0c-.83,0-1.64-.19-2.45-.29a7.38,7.38,0,0,0-1.15-.05c-.19,0-.22-.06-.14-.22a.31.31,0,0,1,.22-.21c.18,0,.13-.12,0-.21a5.69,5.69,0,0,1-1-1.44,2.43,2.43,0,0,1-.26-.8,1,1,0,0,0-.22-.41,1.55,1.55,0,0,1-.17-1.46.89.89,0,0,1,.08-.17c0-.09.09-.08.14,0a1.5,1.5,0,0,0,.29.42,2.52,2.52,0,0,0,1,.57,6.79,6.79,0,0,0,1.67.34,11.56,11.56,0,0,0,3.52-.2,3.61,3.61,0,0,0,1.3-.53,1.59,1.59,0,0,0,.47-.56s0-.12.11-.11.07.07.09.12a1.32,1.32,0,0,1-.67,1.88,7.74,7.74,0,0,1-2.27.58Z"/><path class="cls-2" d="M128,17.11a6.28,6.28,0,0,1-.73.57,6.39,6.39,0,0,1-3.94,1,9.41,9.41,0,0,1-1.83-.28,9.56,9.56,0,0,0-2.77-.27,6,6,0,0,0-3.11.92.06.06,0,0,1-.07,0,1.43,1.43,0,0,1,.33-.32,5.18,5.18,0,0,1,3.06-1.2,12.59,12.59,0,0,1,2.67.19,13.35,13.35,0,0,0,4.88-.11,7.07,7.07,0,0,0,1.34-.46A.21.21,0,0,1,128,17.11Z"/><path class="cls-3" d="M125.89,18.5a4.09,4.09,0,0,1-1,.45,6,6,0,0,1-2.66.12c-.89-.12-1.75-.35-2.64-.5a6.61,6.61,0,0,0-1.09-.12.39.39,0,0,1-.22-.06,4.83,4.83,0,0,1,1.31-.1c1,.06,1.91.3,2.86.43a7.08,7.08,0,0,0,3.33-.22Z"/><path class="cls-4" d="M121.78,12.88l.28.47-.26-.87C121.79,12.62,121.78,12.75,121.78,12.88Z"/><path class="cls-5" d="M123.78,12.16a7.66,7.66,0,0,0-1.56.6c.09-.9.78-6.51,4.86-10.07,0,0-3.1,3.7-3.77,7.63,0,0,3.44-.08,4.13-2.72S128,1.84,130.06.25c0,0-10.57,1.54-7.74,9.74a13.5,13.5,0,0,0-.52,2.49c0,.14,0,.27,0,.4l.28.47v-.07l0,0a11.23,11.23,0,0,1,7.78-1.48,13,13,0,0,0-5.87,1s1.42,1.76,3.25,1.25,3.47-2.13,5.24-1.6C132.5,12.52,127.21,7.06,123.78,12.16Z"/><path class="cls-6" d="M122,13.17l-.22.34.22-.65A1.6,1.6,0,0,1,122,13.17Z"/><path class="cls-7" d="M120.55,12.56a5.65,5.65,0,0,1,1.16.5c0-.68-.37-4.93-3.33-7.75A14.42,14.42,0,0,1,121,11.19S118.38,11,118,9s-.2-4.36-1.73-5.63c0,0,7.91,1.52,5.5,7.6a9.43,9.43,0,0,1,.31,1.89,1.6,1.6,0,0,1,0,.31l-.22.34v0l0,0A8.48,8.48,0,0,0,116,12.11a9.72,9.72,0,0,1,4.39,1,2.6,2.6,0,0,1-2.5.82c-1.27-.42-2.53-1.72-3.89-1.37C114,12.54,118.14,8.6,120.55,12.56Z"/><text class="cls-8" transform="translate(-1.5 33.93)">KMS Jamu</text></svg>